<mxfile host="app.diagrams.net" modified="2021-01-05T02:01:36.232Z" agent="5.0 (Windows NT 10.0; Win64; x64) AppleWebKit/537.36 (KHTML, like Gecko) Chrome/87.0.4280.88 Safari/537.36" etag="DFpW69FhHq7uERVtWfka" version="14.1.8" type="github" pages="3">
  <diagram id="9hgJzYPC9zcKJ9RrrAMs" name="资产方">
    <mxGraphModel dx="1234" dy="484" grid="0" gridSize="10" guides="1" tooltips="1" connect="1" arrows="1" fold="1" page="1" pageScale="1" pageWidth="827" pageHeight="1169" math="0" shadow="0">
      <root>
        <mxCell id="0" />
        <mxCell id="1" parent="0" />
        <mxCell id="ArWcl9WuuMD1pLtWOAH9-17" value="联合建模流程——合作渠道" style="shape=table;childLayout=tableLayout;rowLines=0;columnLines=0;startSize=40;html=1;whiteSpace=wrap;collapsible=0;recursiveResize=0;expand=0;pointerEvents=0;fontStyle=1;align=center;" parent="1" vertex="1">
          <mxGeometry x="60" y="20" width="640" height="964.5" as="geometry" />
        </mxCell>
        <mxCell id="ArWcl9WuuMD1pLtWOAH9-18" value="需求沟通" style="swimlane;horizontal=0;points=[[0,0.5],[1,0.5]];portConstraint=eastwest;startSize=40;html=1;whiteSpace=wrap;collapsible=0;recursiveResize=0;expand=0;pointerEvents=0;fontStyle=1" parent="ArWcl9WuuMD1pLtWOAH9-17" vertex="1">
          <mxGeometry y="40" width="640" height="240" as="geometry" />
        </mxCell>
        <mxCell id="ArWcl9WuuMD1pLtWOAH9-19" value="合作渠道" style="swimlane;connectable=0;startSize=40;html=1;whiteSpace=wrap;collapsible=0;recursiveResize=0;expand=0;pointerEvents=0;" parent="ArWcl9WuuMD1pLtWOAH9-18" vertex="1">
          <mxGeometry x="40" width="150" height="240" as="geometry" />
        </mxCell>
        <mxCell id="ArWcl9WuuMD1pLtWOAH9-33" value="需求沟通" style="rounded=0;whiteSpace=wrap;html=1;" parent="ArWcl9WuuMD1pLtWOAH9-19" vertex="1">
          <mxGeometry x="15" y="60" width="105" height="40" as="geometry" />
        </mxCell>
        <mxCell id="ArWcl9WuuMD1pLtWOAH9-39" value="建模前数据准备" style="rounded=0;whiteSpace=wrap;html=1;" parent="ArWcl9WuuMD1pLtWOAH9-19" vertex="1">
          <mxGeometry x="15" y="150" width="105" height="40" as="geometry" />
        </mxCell>
        <mxCell id="ArWcl9WuuMD1pLtWOAH9-40" value="" style="edgeStyle=orthogonalEdgeStyle;rounded=0;orthogonalLoop=1;jettySize=auto;html=1;" parent="ArWcl9WuuMD1pLtWOAH9-19" source="ArWcl9WuuMD1pLtWOAH9-33" target="ArWcl9WuuMD1pLtWOAH9-39" edge="1">
          <mxGeometry relative="1" as="geometry" />
        </mxCell>
        <mxCell id="ArWcl9WuuMD1pLtWOAH9-20" value="策略组" style="swimlane;connectable=0;startSize=40;html=1;whiteSpace=wrap;collapsible=0;recursiveResize=0;expand=0;pointerEvents=0;" parent="ArWcl9WuuMD1pLtWOAH9-18" vertex="1">
          <mxGeometry x="190" width="150" height="240" as="geometry" />
        </mxCell>
        <mxCell id="ArWcl9WuuMD1pLtWOAH9-34" value="需求沟通" style="whiteSpace=wrap;html=1;rounded=0;" parent="ArWcl9WuuMD1pLtWOAH9-20" vertex="1">
          <mxGeometry x="15" y="60" width="115" height="40" as="geometry" />
        </mxCell>
        <mxCell id="ArWcl9WuuMD1pLtWOAH9-38" value="" style="endArrow=classic;startArrow=classic;html=1;exitX=1;exitY=0.5;exitDx=0;exitDy=0;" parent="ArWcl9WuuMD1pLtWOAH9-20" source="ArWcl9WuuMD1pLtWOAH9-33" edge="1">
          <mxGeometry width="50" height="50" relative="1" as="geometry">
            <mxPoint x="-35" y="130" as="sourcePoint" />
            <mxPoint x="15" y="80" as="targetPoint" />
          </mxGeometry>
        </mxCell>
        <mxCell id="ArWcl9WuuMD1pLtWOAH9-41" value="数据准备、环境准备、人员入场准备" style="whiteSpace=wrap;html=1;rounded=0;" parent="ArWcl9WuuMD1pLtWOAH9-20" vertex="1">
          <mxGeometry x="15" y="150" width="115" height="40" as="geometry" />
        </mxCell>
        <mxCell id="ArWcl9WuuMD1pLtWOAH9-42" value="" style="edgeStyle=orthogonalEdgeStyle;rounded=0;orthogonalLoop=1;jettySize=auto;html=1;" parent="ArWcl9WuuMD1pLtWOAH9-20" source="ArWcl9WuuMD1pLtWOAH9-34" target="ArWcl9WuuMD1pLtWOAH9-41" edge="1">
          <mxGeometry relative="1" as="geometry" />
        </mxCell>
        <mxCell id="ArWcl9WuuMD1pLtWOAH9-21" value="模型组" style="swimlane;connectable=0;startSize=40;html=1;whiteSpace=wrap;collapsible=0;recursiveResize=0;expand=0;pointerEvents=0;" parent="ArWcl9WuuMD1pLtWOAH9-18" vertex="1">
          <mxGeometry x="340" width="150" height="240" as="geometry" />
        </mxCell>
        <mxCell id="ArWcl9WuuMD1pLtWOAH9-30" value="技术组" style="swimlane;connectable=0;startSize=40;html=1;whiteSpace=wrap;collapsible=0;recursiveResize=0;expand=0;pointerEvents=0;" parent="ArWcl9WuuMD1pLtWOAH9-18" vertex="1">
          <mxGeometry x="490" width="150" height="240" as="geometry" />
        </mxCell>
        <mxCell id="ArWcl9WuuMD1pLtWOAH9-22" value="驻场开发" style="swimlane;horizontal=0;points=[[0,0.5],[1,0.5]];portConstraint=eastwest;startSize=40;html=1;whiteSpace=wrap;collapsible=0;recursiveResize=0;expand=0;pointerEvents=0;" parent="ArWcl9WuuMD1pLtWOAH9-17" vertex="1">
          <mxGeometry y="280" width="640" height="240" as="geometry" />
        </mxCell>
        <mxCell id="ArWcl9WuuMD1pLtWOAH9-23" value="" style="swimlane;connectable=0;startSize=0;html=1;whiteSpace=wrap;collapsible=0;recursiveResize=0;expand=0;pointerEvents=0;" parent="ArWcl9WuuMD1pLtWOAH9-22" vertex="1">
          <mxGeometry x="40" width="150" height="240" as="geometry" />
        </mxCell>
        <mxCell id="ArWcl9WuuMD1pLtWOAH9-44" value="开发人员入场" style="rounded=0;whiteSpace=wrap;html=1;" parent="ArWcl9WuuMD1pLtWOAH9-23" vertex="1">
          <mxGeometry x="15" y="30" width="105" height="40" as="geometry" />
        </mxCell>
        <mxCell id="ArWcl9WuuMD1pLtWOAH9-46" value="模型开发前沟通" style="rounded=0;whiteSpace=wrap;html=1;" parent="ArWcl9WuuMD1pLtWOAH9-23" vertex="1">
          <mxGeometry x="15" y="100" width="105" height="40" as="geometry" />
        </mxCell>
        <mxCell id="ArWcl9WuuMD1pLtWOAH9-47" value="" style="edgeStyle=orthogonalEdgeStyle;rounded=0;orthogonalLoop=1;jettySize=auto;html=1;" parent="ArWcl9WuuMD1pLtWOAH9-23" source="ArWcl9WuuMD1pLtWOAH9-44" target="ArWcl9WuuMD1pLtWOAH9-46" edge="1">
          <mxGeometry relative="1" as="geometry" />
        </mxCell>
        <mxCell id="ArWcl9WuuMD1pLtWOAH9-51" value="模型开发" style="rounded=0;whiteSpace=wrap;html=1;" parent="ArWcl9WuuMD1pLtWOAH9-23" vertex="1">
          <mxGeometry x="15" y="170" width="105" height="40" as="geometry" />
        </mxCell>
        <mxCell id="ArWcl9WuuMD1pLtWOAH9-52" value="" style="edgeStyle=orthogonalEdgeStyle;rounded=0;orthogonalLoop=1;jettySize=auto;html=1;" parent="ArWcl9WuuMD1pLtWOAH9-23" source="ArWcl9WuuMD1pLtWOAH9-46" target="ArWcl9WuuMD1pLtWOAH9-51" edge="1">
          <mxGeometry relative="1" as="geometry" />
        </mxCell>
        <mxCell id="ArWcl9WuuMD1pLtWOAH9-24" value="" style="swimlane;connectable=0;startSize=0;html=1;whiteSpace=wrap;collapsible=0;recursiveResize=0;expand=0;pointerEvents=0;" parent="ArWcl9WuuMD1pLtWOAH9-22" vertex="1">
          <mxGeometry x="190" width="150" height="240" as="geometry" />
        </mxCell>
        <mxCell id="ArWcl9WuuMD1pLtWOAH9-48" value="业务数据沟通" style="rounded=0;whiteSpace=wrap;html=1;" parent="ArWcl9WuuMD1pLtWOAH9-24" vertex="1">
          <mxGeometry x="25" y="100" width="105" height="40" as="geometry" />
        </mxCell>
        <mxCell id="ArWcl9WuuMD1pLtWOAH9-25" value="" style="swimlane;connectable=0;startSize=0;html=1;whiteSpace=wrap;collapsible=0;recursiveResize=0;expand=0;pointerEvents=0;" parent="ArWcl9WuuMD1pLtWOAH9-22" vertex="1">
          <mxGeometry x="340" width="150" height="240" as="geometry" />
        </mxCell>
        <mxCell id="ArWcl9WuuMD1pLtWOAH9-53" value="模型评估" style="rounded=0;whiteSpace=wrap;html=1;" parent="ArWcl9WuuMD1pLtWOAH9-25" vertex="1">
          <mxGeometry x="22.5" y="170" width="105" height="40" as="geometry" />
        </mxCell>
        <mxCell id="ArWcl9WuuMD1pLtWOAH9-31" style="swimlane;connectable=0;startSize=0;html=1;whiteSpace=wrap;collapsible=0;recursiveResize=0;expand=0;pointerEvents=0;" parent="ArWcl9WuuMD1pLtWOAH9-22" vertex="1">
          <mxGeometry x="490" width="150" height="240" as="geometry" />
        </mxCell>
        <mxCell id="ArWcl9WuuMD1pLtWOAH9-50" style="edgeStyle=orthogonalEdgeStyle;rounded=0;orthogonalLoop=1;jettySize=auto;html=1;entryX=1;entryY=0.5;entryDx=0;entryDy=0;" parent="ArWcl9WuuMD1pLtWOAH9-22" source="ArWcl9WuuMD1pLtWOAH9-48" target="ArWcl9WuuMD1pLtWOAH9-46" edge="1">
          <mxGeometry relative="1" as="geometry" />
        </mxCell>
        <mxCell id="ArWcl9WuuMD1pLtWOAH9-54" value="" style="edgeStyle=orthogonalEdgeStyle;rounded=0;orthogonalLoop=1;jettySize=auto;html=1;" parent="ArWcl9WuuMD1pLtWOAH9-22" source="ArWcl9WuuMD1pLtWOAH9-51" target="ArWcl9WuuMD1pLtWOAH9-53" edge="1">
          <mxGeometry relative="1" as="geometry" />
        </mxCell>
        <mxCell id="ArWcl9WuuMD1pLtWOAH9-26" value="模型验收及部署" style="swimlane;horizontal=0;points=[[0,0.5],[1,0.5]];portConstraint=eastwest;startSize=40;html=1;whiteSpace=wrap;collapsible=0;recursiveResize=0;expand=0;pointerEvents=0;" parent="ArWcl9WuuMD1pLtWOAH9-17" vertex="1">
          <mxGeometry y="520" width="640" height="445" as="geometry" />
        </mxCell>
        <mxCell id="ArWcl9WuuMD1pLtWOAH9-27" value="" style="swimlane;connectable=0;startSize=0;html=1;whiteSpace=wrap;collapsible=0;recursiveResize=0;expand=0;pointerEvents=0;" parent="ArWcl9WuuMD1pLtWOAH9-26" vertex="1">
          <mxGeometry x="40" width="150" height="445" as="geometry" />
        </mxCell>
        <mxCell id="ArWcl9WuuMD1pLtWOAH9-75" value="模型迭代事宜沟通" style="whiteSpace=wrap;html=1;" parent="ArWcl9WuuMD1pLtWOAH9-27" vertex="1">
          <mxGeometry x="17.5" y="345" width="102.5" height="40" as="geometry" />
        </mxCell>
        <mxCell id="ArWcl9WuuMD1pLtWOAH9-28" value="" style="swimlane;connectable=0;startSize=0;html=1;whiteSpace=wrap;collapsible=0;recursiveResize=0;expand=0;pointerEvents=0;" parent="ArWcl9WuuMD1pLtWOAH9-26" vertex="1">
          <mxGeometry x="190" width="150" height="445" as="geometry" />
        </mxCell>
        <mxCell id="ArWcl9WuuMD1pLtWOAH9-60" style="edgeStyle=orthogonalEdgeStyle;rounded=0;orthogonalLoop=1;jettySize=auto;html=1;entryX=0;entryY=0.5;entryDx=0;entryDy=0;" parent="ArWcl9WuuMD1pLtWOAH9-28" source="ArWcl9WuuMD1pLtWOAH9-55" target="ArWcl9WuuMD1pLtWOAH9-58" edge="1">
          <mxGeometry relative="1" as="geometry" />
        </mxCell>
        <mxCell id="ArWcl9WuuMD1pLtWOAH9-55" value="模型策略沟通&lt;br&gt;及策略设置" style="rounded=0;whiteSpace=wrap;html=1;" parent="ArWcl9WuuMD1pLtWOAH9-28" vertex="1">
          <mxGeometry x="-60" y="30" width="105" height="40" as="geometry" />
        </mxCell>
        <mxCell id="ArWcl9WuuMD1pLtWOAH9-58" value="模型部署需求梳理" style="whiteSpace=wrap;html=1;rounded=0;" parent="ArWcl9WuuMD1pLtWOAH9-28" vertex="1">
          <mxGeometry x="20" y="100" width="120" height="30" as="geometry" />
        </mxCell>
        <mxCell id="ArWcl9WuuMD1pLtWOAH9-73" style="edgeStyle=orthogonalEdgeStyle;rounded=0;orthogonalLoop=1;jettySize=auto;html=1;entryX=0.5;entryY=0;entryDx=0;entryDy=0;exitX=0;exitY=0.5;exitDx=0;exitDy=0;" parent="ArWcl9WuuMD1pLtWOAH9-28" source="ArWcl9WuuMD1pLtWOAH9-69" target="ArWcl9WuuMD1pLtWOAH9-72" edge="1">
          <mxGeometry relative="1" as="geometry">
            <Array as="points">
              <mxPoint x="43" y="270" />
              <mxPoint x="43" y="310" />
            </Array>
          </mxGeometry>
        </mxCell>
        <mxCell id="ArWcl9WuuMD1pLtWOAH9-69" value="模型监控" style="whiteSpace=wrap;html=1;rounded=0;" parent="ArWcl9WuuMD1pLtWOAH9-28" vertex="1">
          <mxGeometry x="60" y="255" width="70" height="30" as="geometry" />
        </mxCell>
        <mxCell id="ArWcl9WuuMD1pLtWOAH9-72" value="模型是否持续有效、稳定" style="rhombus;whiteSpace=wrap;html=1;" parent="ArWcl9WuuMD1pLtWOAH9-28" vertex="1">
          <mxGeometry x="10" y="335" width="65" height="60" as="geometry" />
        </mxCell>
        <mxCell id="ArWcl9WuuMD1pLtWOAH9-29" value="" style="swimlane;connectable=0;startSize=0;html=1;whiteSpace=wrap;collapsible=0;recursiveResize=0;expand=0;pointerEvents=0;" parent="ArWcl9WuuMD1pLtWOAH9-26" vertex="1">
          <mxGeometry x="340" width="150" height="445" as="geometry" />
        </mxCell>
        <mxCell id="ArWcl9WuuMD1pLtWOAH9-65" value="模型测试验收" style="whiteSpace=wrap;html=1;rounded=0;" parent="ArWcl9WuuMD1pLtWOAH9-29" vertex="1">
          <mxGeometry x="7.5" y="150" width="120" height="30" as="geometry" />
        </mxCell>
        <mxCell id="ArWcl9WuuMD1pLtWOAH9-32" style="swimlane;connectable=0;startSize=0;html=1;whiteSpace=wrap;collapsible=0;recursiveResize=0;expand=0;pointerEvents=0;" parent="ArWcl9WuuMD1pLtWOAH9-26" vertex="1">
          <mxGeometry x="490" width="150" height="445" as="geometry" />
        </mxCell>
        <mxCell id="ArWcl9WuuMD1pLtWOAH9-61" value="模型部署需求开发" style="whiteSpace=wrap;html=1;rounded=0;" parent="ArWcl9WuuMD1pLtWOAH9-32" vertex="1">
          <mxGeometry x="15" y="100" width="120" height="30" as="geometry" />
        </mxCell>
        <mxCell id="ArWcl9WuuMD1pLtWOAH9-63" value="模型测试" style="whiteSpace=wrap;html=1;rounded=0;" parent="ArWcl9WuuMD1pLtWOAH9-32" vertex="1">
          <mxGeometry x="15" y="150" width="120" height="30" as="geometry" />
        </mxCell>
        <mxCell id="ArWcl9WuuMD1pLtWOAH9-64" value="" style="edgeStyle=orthogonalEdgeStyle;rounded=0;orthogonalLoop=1;jettySize=auto;html=1;" parent="ArWcl9WuuMD1pLtWOAH9-32" source="ArWcl9WuuMD1pLtWOAH9-61" target="ArWcl9WuuMD1pLtWOAH9-63" edge="1">
          <mxGeometry relative="1" as="geometry" />
        </mxCell>
        <mxCell id="ArWcl9WuuMD1pLtWOAH9-67" value="模型上线" style="whiteSpace=wrap;html=1;rounded=0;" parent="ArWcl9WuuMD1pLtWOAH9-32" vertex="1">
          <mxGeometry x="15" y="206" width="120" height="30" as="geometry" />
        </mxCell>
        <mxCell id="ArWcl9WuuMD1pLtWOAH9-62" value="" style="edgeStyle=orthogonalEdgeStyle;rounded=0;orthogonalLoop=1;jettySize=auto;html=1;" parent="ArWcl9WuuMD1pLtWOAH9-26" source="ArWcl9WuuMD1pLtWOAH9-58" target="ArWcl9WuuMD1pLtWOAH9-61" edge="1">
          <mxGeometry relative="1" as="geometry" />
        </mxCell>
        <mxCell id="ArWcl9WuuMD1pLtWOAH9-66" value="" style="edgeStyle=orthogonalEdgeStyle;rounded=0;orthogonalLoop=1;jettySize=auto;html=1;" parent="ArWcl9WuuMD1pLtWOAH9-26" source="ArWcl9WuuMD1pLtWOAH9-63" target="ArWcl9WuuMD1pLtWOAH9-65" edge="1">
          <mxGeometry relative="1" as="geometry" />
        </mxCell>
        <mxCell id="ArWcl9WuuMD1pLtWOAH9-68" value="" style="edgeStyle=orthogonalEdgeStyle;rounded=0;orthogonalLoop=1;jettySize=auto;html=1;exitX=0.5;exitY=1;exitDx=0;exitDy=0;entryX=0;entryY=0.5;entryDx=0;entryDy=0;" parent="ArWcl9WuuMD1pLtWOAH9-26" source="ArWcl9WuuMD1pLtWOAH9-65" target="ArWcl9WuuMD1pLtWOAH9-67" edge="1">
          <mxGeometry relative="1" as="geometry" />
        </mxCell>
        <mxCell id="ArWcl9WuuMD1pLtWOAH9-70" value="" style="edgeStyle=orthogonalEdgeStyle;rounded=0;orthogonalLoop=1;jettySize=auto;html=1;exitX=0.558;exitY=1.022;exitDx=0;exitDy=0;exitPerimeter=0;entryX=1;entryY=0.5;entryDx=0;entryDy=0;" parent="ArWcl9WuuMD1pLtWOAH9-26" source="ArWcl9WuuMD1pLtWOAH9-67" target="ArWcl9WuuMD1pLtWOAH9-69" edge="1">
          <mxGeometry relative="1" as="geometry" />
        </mxCell>
        <mxCell id="ArWcl9WuuMD1pLtWOAH9-76" value="" style="edgeStyle=orthogonalEdgeStyle;rounded=0;orthogonalLoop=1;jettySize=auto;html=1;" parent="ArWcl9WuuMD1pLtWOAH9-26" source="ArWcl9WuuMD1pLtWOAH9-72" target="ArWcl9WuuMD1pLtWOAH9-75" edge="1">
          <mxGeometry relative="1" as="geometry" />
        </mxCell>
        <mxCell id="ArWcl9WuuMD1pLtWOAH9-77" value="否" style="edgeLabel;html=1;align=center;verticalAlign=middle;resizable=0;points=[];" parent="ArWcl9WuuMD1pLtWOAH9-76" vertex="1" connectable="0">
          <mxGeometry x="0.25" y="1" relative="1" as="geometry">
            <mxPoint as="offset" />
          </mxGeometry>
        </mxCell>
        <mxCell id="ArWcl9WuuMD1pLtWOAH9-45" value="" style="edgeStyle=orthogonalEdgeStyle;rounded=0;orthogonalLoop=1;jettySize=auto;html=1;" parent="ArWcl9WuuMD1pLtWOAH9-17" source="ArWcl9WuuMD1pLtWOAH9-39" target="ArWcl9WuuMD1pLtWOAH9-44" edge="1">
          <mxGeometry relative="1" as="geometry" />
        </mxCell>
        <mxCell id="dLwiTaNwSzfjlPnE9AMy-1" style="edgeStyle=orthogonalEdgeStyle;rounded=0;orthogonalLoop=1;jettySize=auto;html=1;exitX=0.5;exitY=1;exitDx=0;exitDy=0;entryX=1;entryY=0.5;entryDx=0;entryDy=0;" edge="1" parent="ArWcl9WuuMD1pLtWOAH9-17" source="ArWcl9WuuMD1pLtWOAH9-53" target="ArWcl9WuuMD1pLtWOAH9-55">
          <mxGeometry relative="1" as="geometry" />
        </mxCell>
        <mxCell id="ArWcl9WuuMD1pLtWOAH9-74" style="edgeStyle=orthogonalEdgeStyle;rounded=0;orthogonalLoop=1;jettySize=auto;html=1;" parent="1" source="ArWcl9WuuMD1pLtWOAH9-72" edge="1">
          <mxGeometry relative="1" as="geometry">
            <mxPoint x="350" y="835" as="targetPoint" />
          </mxGeometry>
        </mxCell>
        <mxCell id="ArWcl9WuuMD1pLtWOAH9-78" value="是" style="edgeLabel;html=1;align=center;verticalAlign=middle;resizable=0;points=[];" parent="ArWcl9WuuMD1pLtWOAH9-74" vertex="1" connectable="0">
          <mxGeometry x="-0.3123" relative="1" as="geometry">
            <mxPoint as="offset" />
          </mxGeometry>
        </mxCell>
      </root>
    </mxGraphModel>
  </diagram>
  <diagram name="三方" id="86PxQM58uB2Q3ptGZd8X">
    <mxGraphModel dx="1234" dy="484" grid="0" gridSize="10" guides="1" tooltips="1" connect="1" arrows="1" fold="1" page="1" pageScale="1" pageWidth="827" pageHeight="1169" math="0" shadow="0">
      <root>
        <mxCell id="wBUEtHGvzGpiYf_AuA1c-0" />
        <mxCell id="wBUEtHGvzGpiYf_AuA1c-1" parent="wBUEtHGvzGpiYf_AuA1c-0" />
        <mxCell id="wBUEtHGvzGpiYf_AuA1c-2" value="联合建模流程——三方数据" style="shape=table;childLayout=tableLayout;rowLines=0;columnLines=0;startSize=40;html=1;whiteSpace=wrap;collapsible=0;recursiveResize=0;expand=0;pointerEvents=0;fontStyle=1;align=center;" vertex="1" parent="wBUEtHGvzGpiYf_AuA1c-1">
          <mxGeometry x="60" y="20" width="732.5" height="983.5" as="geometry" />
        </mxCell>
        <mxCell id="wBUEtHGvzGpiYf_AuA1c-3" value="需求沟通" style="swimlane;horizontal=0;points=[[0,0.5],[1,0.5]];portConstraint=eastwest;startSize=40;html=1;whiteSpace=wrap;collapsible=0;recursiveResize=0;expand=0;pointerEvents=0;fontStyle=1" vertex="1" parent="wBUEtHGvzGpiYf_AuA1c-2">
          <mxGeometry y="40" width="732.5" height="234" as="geometry" />
        </mxCell>
        <mxCell id="wBUEtHGvzGpiYf_AuA1c-4" value="三方数据" style="swimlane;connectable=0;startSize=40;html=1;whiteSpace=wrap;collapsible=0;recursiveResize=0;expand=0;pointerEvents=0;" vertex="1" parent="wBUEtHGvzGpiYf_AuA1c-3">
          <mxGeometry x="40" width="175" height="234" as="geometry" />
        </mxCell>
        <mxCell id="wBUEtHGvzGpiYf_AuA1c-5" value="需求沟通" style="rounded=0;whiteSpace=wrap;html=1;" vertex="1" parent="wBUEtHGvzGpiYf_AuA1c-4">
          <mxGeometry x="15" y="60" width="129" height="40" as="geometry" />
        </mxCell>
        <mxCell id="wBUEtHGvzGpiYf_AuA1c-6" value="需求梳理&lt;br&gt;1、数据需求（数据量、数据字段、数据区间）&lt;br&gt;2、硬件要求（环境、系统配置）" style="rounded=0;whiteSpace=wrap;html=1;align=left;" vertex="1" parent="wBUEtHGvzGpiYf_AuA1c-4">
          <mxGeometry x="7.5" y="136" width="143.5" height="78" as="geometry" />
        </mxCell>
        <mxCell id="wBUEtHGvzGpiYf_AuA1c-7" value="" style="edgeStyle=orthogonalEdgeStyle;rounded=0;orthogonalLoop=1;jettySize=auto;html=1;" edge="1" parent="wBUEtHGvzGpiYf_AuA1c-4" source="wBUEtHGvzGpiYf_AuA1c-5" target="wBUEtHGvzGpiYf_AuA1c-6">
          <mxGeometry relative="1" as="geometry" />
        </mxCell>
        <mxCell id="wBUEtHGvzGpiYf_AuA1c-8" value="策略组" style="swimlane;connectable=0;startSize=40;html=1;whiteSpace=wrap;collapsible=0;recursiveResize=0;expand=0;pointerEvents=0;" vertex="1" parent="wBUEtHGvzGpiYf_AuA1c-3">
          <mxGeometry x="215" width="150" height="234" as="geometry" />
        </mxCell>
        <mxCell id="wBUEtHGvzGpiYf_AuA1c-9" value="需求沟通" style="whiteSpace=wrap;html=1;rounded=0;" vertex="1" parent="wBUEtHGvzGpiYf_AuA1c-8">
          <mxGeometry x="15" y="60" width="115" height="40" as="geometry" />
        </mxCell>
        <mxCell id="wBUEtHGvzGpiYf_AuA1c-10" value="" style="endArrow=classic;startArrow=classic;html=1;exitX=1;exitY=0.5;exitDx=0;exitDy=0;" edge="1" parent="wBUEtHGvzGpiYf_AuA1c-8" source="wBUEtHGvzGpiYf_AuA1c-5">
          <mxGeometry width="50" height="50" relative="1" as="geometry">
            <mxPoint x="-35" y="130" as="sourcePoint" />
            <mxPoint x="15" y="80" as="targetPoint" />
          </mxGeometry>
        </mxCell>
        <mxCell id="wBUEtHGvzGpiYf_AuA1c-11" value="入场前准备&lt;br&gt;1、内部审批&lt;br&gt;2、数据提取及加密&lt;br&gt;3、环境、权限准备&lt;br&gt;4、人员入场审批" style="whiteSpace=wrap;html=1;rounded=0;align=left;" vertex="1" parent="wBUEtHGvzGpiYf_AuA1c-8">
          <mxGeometry x="15" y="140" width="115" height="70" as="geometry" />
        </mxCell>
        <mxCell id="wBUEtHGvzGpiYf_AuA1c-13" value="模型组" style="swimlane;connectable=0;startSize=40;html=1;whiteSpace=wrap;collapsible=0;recursiveResize=0;expand=0;pointerEvents=0;" vertex="1" parent="wBUEtHGvzGpiYf_AuA1c-3">
          <mxGeometry x="365" width="146" height="234" as="geometry" />
        </mxCell>
        <mxCell id="wBUEtHGvzGpiYf_AuA1c-14" value="技术组" style="swimlane;connectable=0;startSize=40;html=1;whiteSpace=wrap;collapsible=0;recursiveResize=0;expand=0;pointerEvents=0;" vertex="1" parent="wBUEtHGvzGpiYf_AuA1c-3">
          <mxGeometry x="511" width="222" height="234" as="geometry" />
        </mxCell>
        <mxCell id="GBaSO3VjDCnRQ0Q_XL8A-0" style="edgeStyle=orthogonalEdgeStyle;rounded=0;orthogonalLoop=1;jettySize=auto;html=1;exitX=1;exitY=0.5;exitDx=0;exitDy=0;entryX=0;entryY=0.5;entryDx=0;entryDy=0;" edge="1" parent="wBUEtHGvzGpiYf_AuA1c-3" source="wBUEtHGvzGpiYf_AuA1c-6" target="wBUEtHGvzGpiYf_AuA1c-11">
          <mxGeometry relative="1" as="geometry" />
        </mxCell>
        <mxCell id="wBUEtHGvzGpiYf_AuA1c-15" value="驻场开发" style="swimlane;horizontal=0;points=[[0,0.5],[1,0.5]];portConstraint=eastwest;startSize=40;html=1;whiteSpace=wrap;collapsible=0;recursiveResize=0;expand=0;pointerEvents=0;" vertex="1" parent="wBUEtHGvzGpiYf_AuA1c-2">
          <mxGeometry y="274" width="732.5" height="210" as="geometry" />
        </mxCell>
        <mxCell id="wBUEtHGvzGpiYf_AuA1c-16" value="" style="swimlane;connectable=0;startSize=0;html=1;whiteSpace=wrap;collapsible=0;recursiveResize=0;expand=0;pointerEvents=0;" vertex="1" parent="wBUEtHGvzGpiYf_AuA1c-15">
          <mxGeometry x="40" width="175" height="210" as="geometry" />
        </mxCell>
        <mxCell id="wBUEtHGvzGpiYf_AuA1c-17" value="开发人员入场" style="rounded=0;whiteSpace=wrap;html=1;" vertex="1" parent="wBUEtHGvzGpiYf_AuA1c-16">
          <mxGeometry x="15" y="17" width="105" height="40" as="geometry" />
        </mxCell>
        <mxCell id="wBUEtHGvzGpiYf_AuA1c-18" value="模型开发前沟通" style="rounded=0;whiteSpace=wrap;html=1;" vertex="1" parent="wBUEtHGvzGpiYf_AuA1c-16">
          <mxGeometry x="15" y="87" width="105" height="40" as="geometry" />
        </mxCell>
        <mxCell id="wBUEtHGvzGpiYf_AuA1c-19" value="" style="edgeStyle=orthogonalEdgeStyle;rounded=0;orthogonalLoop=1;jettySize=auto;html=1;" edge="1" parent="wBUEtHGvzGpiYf_AuA1c-16" source="wBUEtHGvzGpiYf_AuA1c-17" target="wBUEtHGvzGpiYf_AuA1c-18">
          <mxGeometry relative="1" as="geometry" />
        </mxCell>
        <mxCell id="wBUEtHGvzGpiYf_AuA1c-20" value="模型开发&lt;br&gt;提交验收" style="rounded=0;whiteSpace=wrap;html=1;" vertex="1" parent="wBUEtHGvzGpiYf_AuA1c-16">
          <mxGeometry x="15" y="152" width="105" height="40" as="geometry" />
        </mxCell>
        <mxCell id="wBUEtHGvzGpiYf_AuA1c-21" value="" style="edgeStyle=orthogonalEdgeStyle;rounded=0;orthogonalLoop=1;jettySize=auto;html=1;" edge="1" parent="wBUEtHGvzGpiYf_AuA1c-16" source="wBUEtHGvzGpiYf_AuA1c-18" target="wBUEtHGvzGpiYf_AuA1c-20">
          <mxGeometry relative="1" as="geometry" />
        </mxCell>
        <mxCell id="wBUEtHGvzGpiYf_AuA1c-59" value="" style="endArrow=classic;startArrow=classic;html=1;entryX=0;entryY=0.5;entryDx=0;entryDy=0;" edge="1" parent="wBUEtHGvzGpiYf_AuA1c-16" target="wBUEtHGvzGpiYf_AuA1c-23">
          <mxGeometry width="50" height="50" relative="1" as="geometry">
            <mxPoint x="120" y="107" as="sourcePoint" />
            <mxPoint x="170" y="57" as="targetPoint" />
          </mxGeometry>
        </mxCell>
        <mxCell id="wBUEtHGvzGpiYf_AuA1c-22" value="" style="swimlane;connectable=0;startSize=0;html=1;whiteSpace=wrap;collapsible=0;recursiveResize=0;expand=0;pointerEvents=0;" vertex="1" parent="wBUEtHGvzGpiYf_AuA1c-15">
          <mxGeometry x="215" width="150" height="210" as="geometry" />
        </mxCell>
        <mxCell id="wBUEtHGvzGpiYf_AuA1c-23" value="业务数据沟通" style="rounded=0;whiteSpace=wrap;html=1;" vertex="1" parent="wBUEtHGvzGpiYf_AuA1c-22">
          <mxGeometry x="25" y="87" width="105" height="40" as="geometry" />
        </mxCell>
        <mxCell id="wBUEtHGvzGpiYf_AuA1c-24" value="" style="swimlane;connectable=0;startSize=0;html=1;whiteSpace=wrap;collapsible=0;recursiveResize=0;expand=0;pointerEvents=0;" vertex="1" parent="wBUEtHGvzGpiYf_AuA1c-15">
          <mxGeometry x="365" width="146" height="210" as="geometry" />
        </mxCell>
        <mxCell id="wBUEtHGvzGpiYf_AuA1c-26" style="swimlane;connectable=0;startSize=0;html=1;whiteSpace=wrap;collapsible=0;recursiveResize=0;expand=0;pointerEvents=0;" vertex="1" parent="wBUEtHGvzGpiYf_AuA1c-15">
          <mxGeometry x="511" width="222" height="210" as="geometry" />
        </mxCell>
        <mxCell id="wBUEtHGvzGpiYf_AuA1c-29" value="模型验收及部署" style="swimlane;horizontal=0;points=[[0,0.5],[1,0.5]];portConstraint=eastwest;startSize=40;html=1;whiteSpace=wrap;collapsible=0;recursiveResize=0;expand=0;pointerEvents=0;" vertex="1" parent="wBUEtHGvzGpiYf_AuA1c-2">
          <mxGeometry y="484" width="732.5" height="500" as="geometry" />
        </mxCell>
        <mxCell id="wBUEtHGvzGpiYf_AuA1c-30" value="" style="swimlane;connectable=0;startSize=0;html=1;whiteSpace=wrap;collapsible=0;recursiveResize=0;expand=0;pointerEvents=0;" vertex="1" parent="wBUEtHGvzGpiYf_AuA1c-29">
          <mxGeometry x="40" width="175" height="500" as="geometry" />
        </mxCell>
        <mxCell id="wBUEtHGvzGpiYf_AuA1c-31" value="模型迭代事宜沟通" style="whiteSpace=wrap;html=1;" vertex="1" parent="wBUEtHGvzGpiYf_AuA1c-30">
          <mxGeometry x="17.5" y="438" width="102.5" height="40" as="geometry" />
        </mxCell>
        <mxCell id="wBUEtHGvzGpiYf_AuA1c-32" value="" style="swimlane;connectable=0;startSize=0;html=1;whiteSpace=wrap;collapsible=0;recursiveResize=0;expand=0;pointerEvents=0;" vertex="1" parent="wBUEtHGvzGpiYf_AuA1c-29">
          <mxGeometry x="215" width="150" height="500" as="geometry" />
        </mxCell>
        <mxCell id="wBUEtHGvzGpiYf_AuA1c-33" style="edgeStyle=orthogonalEdgeStyle;rounded=0;orthogonalLoop=1;jettySize=auto;html=1;entryX=0;entryY=0.5;entryDx=0;entryDy=0;" edge="1" parent="wBUEtHGvzGpiYf_AuA1c-32" source="wBUEtHGvzGpiYf_AuA1c-34" target="wBUEtHGvzGpiYf_AuA1c-35">
          <mxGeometry relative="1" as="geometry" />
        </mxCell>
        <mxCell id="wBUEtHGvzGpiYf_AuA1c-34" value="模型策略沟通&lt;br&gt;及策略设置" style="rounded=0;whiteSpace=wrap;html=1;" vertex="1" parent="wBUEtHGvzGpiYf_AuA1c-32">
          <mxGeometry x="-60" y="85" width="105" height="40" as="geometry" />
        </mxCell>
        <mxCell id="wBUEtHGvzGpiYf_AuA1c-35" value="模型部署需求梳理" style="whiteSpace=wrap;html=1;rounded=0;" vertex="1" parent="wBUEtHGvzGpiYf_AuA1c-32">
          <mxGeometry x="20" y="151" width="120" height="30" as="geometry" />
        </mxCell>
        <mxCell id="wBUEtHGvzGpiYf_AuA1c-36" style="edgeStyle=orthogonalEdgeStyle;rounded=0;orthogonalLoop=1;jettySize=auto;html=1;entryX=0.5;entryY=0;entryDx=0;entryDy=0;exitX=0;exitY=0.5;exitDx=0;exitDy=0;" edge="1" parent="wBUEtHGvzGpiYf_AuA1c-32" source="wBUEtHGvzGpiYf_AuA1c-37" target="wBUEtHGvzGpiYf_AuA1c-38">
          <mxGeometry relative="1" as="geometry">
            <Array as="points">
              <mxPoint x="43" y="371" />
              <mxPoint x="43" y="411" />
            </Array>
          </mxGeometry>
        </mxCell>
        <mxCell id="wBUEtHGvzGpiYf_AuA1c-37" value="模型监控" style="whiteSpace=wrap;html=1;rounded=0;" vertex="1" parent="wBUEtHGvzGpiYf_AuA1c-32">
          <mxGeometry x="60" y="348" width="70" height="30" as="geometry" />
        </mxCell>
        <mxCell id="wBUEtHGvzGpiYf_AuA1c-38" value="模型是否持续有效、稳定" style="rhombus;whiteSpace=wrap;html=1;" vertex="1" parent="wBUEtHGvzGpiYf_AuA1c-32">
          <mxGeometry x="10" y="428" width="65" height="60" as="geometry" />
        </mxCell>
        <mxCell id="wBUEtHGvzGpiYf_AuA1c-65" value="模型上线&lt;br&gt;测试验收" style="rhombus;whiteSpace=wrap;html=1;align=center;" vertex="1" parent="wBUEtHGvzGpiYf_AuA1c-32">
          <mxGeometry x="103.5" y="203" width="75" height="74" as="geometry" />
        </mxCell>
        <mxCell id="wBUEtHGvzGpiYf_AuA1c-54" style="edgeStyle=orthogonalEdgeStyle;rounded=0;orthogonalLoop=1;jettySize=auto;html=1;entryX=0.5;entryY=1;entryDx=0;entryDy=0;exitX=1;exitY=0.5;exitDx=0;exitDy=0;" edge="1" parent="wBUEtHGvzGpiYf_AuA1c-32" source="wBUEtHGvzGpiYf_AuA1c-38" target="wBUEtHGvzGpiYf_AuA1c-37">
          <mxGeometry relative="1" as="geometry">
            <mxPoint x="100" y="406" as="targetPoint" />
          </mxGeometry>
        </mxCell>
        <mxCell id="wBUEtHGvzGpiYf_AuA1c-55" value="是" style="edgeLabel;html=1;align=center;verticalAlign=middle;resizable=0;points=[];" vertex="1" connectable="0" parent="wBUEtHGvzGpiYf_AuA1c-54">
          <mxGeometry x="-0.3123" relative="1" as="geometry">
            <mxPoint as="offset" />
          </mxGeometry>
        </mxCell>
        <mxCell id="wBUEtHGvzGpiYf_AuA1c-39" value="" style="swimlane;connectable=0;startSize=0;html=1;whiteSpace=wrap;collapsible=0;recursiveResize=0;expand=0;pointerEvents=0;" vertex="1" parent="wBUEtHGvzGpiYf_AuA1c-29">
          <mxGeometry x="365" width="146" height="500" as="geometry" />
        </mxCell>
        <mxCell id="wBUEtHGvzGpiYf_AuA1c-25" value="模型验收评估" style="rounded=0;whiteSpace=wrap;html=1;" vertex="1" parent="wBUEtHGvzGpiYf_AuA1c-39">
          <mxGeometry x="15" y="15" width="105" height="40" as="geometry" />
        </mxCell>
        <mxCell id="wBUEtHGvzGpiYf_AuA1c-62" value="模型验收结论" style="rounded=0;whiteSpace=wrap;html=1;" vertex="1" parent="wBUEtHGvzGpiYf_AuA1c-39">
          <mxGeometry x="15" y="85" width="105" height="40" as="geometry" />
        </mxCell>
        <mxCell id="wBUEtHGvzGpiYf_AuA1c-63" value="" style="edgeStyle=orthogonalEdgeStyle;rounded=0;orthogonalLoop=1;jettySize=auto;html=1;" edge="1" parent="wBUEtHGvzGpiYf_AuA1c-39" source="wBUEtHGvzGpiYf_AuA1c-25" target="wBUEtHGvzGpiYf_AuA1c-62">
          <mxGeometry relative="1" as="geometry" />
        </mxCell>
        <mxCell id="wBUEtHGvzGpiYf_AuA1c-41" style="swimlane;connectable=0;startSize=0;html=1;whiteSpace=wrap;collapsible=0;recursiveResize=0;expand=0;pointerEvents=0;" vertex="1" parent="wBUEtHGvzGpiYf_AuA1c-29">
          <mxGeometry x="511" width="222" height="500" as="geometry" />
        </mxCell>
        <mxCell id="wBUEtHGvzGpiYf_AuA1c-42" value="模型部署需求开发" style="whiteSpace=wrap;html=1;rounded=0;" vertex="1" parent="wBUEtHGvzGpiYf_AuA1c-41">
          <mxGeometry x="15" y="151" width="120" height="30" as="geometry" />
        </mxCell>
        <mxCell id="wBUEtHGvzGpiYf_AuA1c-43" value="模型测试&lt;br&gt;（测试方法、测试案例）" style="whiteSpace=wrap;html=1;rounded=0;" vertex="1" parent="wBUEtHGvzGpiYf_AuA1c-41">
          <mxGeometry x="10" y="218" width="130" height="44" as="geometry" />
        </mxCell>
        <mxCell id="wBUEtHGvzGpiYf_AuA1c-44" value="" style="edgeStyle=orthogonalEdgeStyle;rounded=0;orthogonalLoop=1;jettySize=auto;html=1;" edge="1" parent="wBUEtHGvzGpiYf_AuA1c-41" source="wBUEtHGvzGpiYf_AuA1c-42" target="wBUEtHGvzGpiYf_AuA1c-43">
          <mxGeometry relative="1" as="geometry" />
        </mxCell>
        <mxCell id="wBUEtHGvzGpiYf_AuA1c-45" value="模型上线" style="whiteSpace=wrap;html=1;rounded=0;" vertex="1" parent="wBUEtHGvzGpiYf_AuA1c-41">
          <mxGeometry x="15" y="309" width="120" height="30" as="geometry" />
        </mxCell>
        <mxCell id="wBUEtHGvzGpiYf_AuA1c-46" value="" style="edgeStyle=orthogonalEdgeStyle;rounded=0;orthogonalLoop=1;jettySize=auto;html=1;" edge="1" parent="wBUEtHGvzGpiYf_AuA1c-29" source="wBUEtHGvzGpiYf_AuA1c-35" target="wBUEtHGvzGpiYf_AuA1c-42">
          <mxGeometry relative="1" as="geometry" />
        </mxCell>
        <mxCell id="wBUEtHGvzGpiYf_AuA1c-48" value="" style="edgeStyle=orthogonalEdgeStyle;rounded=0;orthogonalLoop=1;jettySize=auto;html=1;entryX=0;entryY=0.5;entryDx=0;entryDy=0;exitX=0;exitY=0.5;exitDx=0;exitDy=0;" edge="1" parent="wBUEtHGvzGpiYf_AuA1c-29" source="wBUEtHGvzGpiYf_AuA1c-65" target="wBUEtHGvzGpiYf_AuA1c-45">
          <mxGeometry relative="1" as="geometry">
            <mxPoint x="380" y="313" as="sourcePoint" />
          </mxGeometry>
        </mxCell>
        <mxCell id="wBUEtHGvzGpiYf_AuA1c-70" value="验收通过" style="edgeLabel;html=1;align=center;verticalAlign=middle;resizable=0;points=[];" vertex="1" connectable="0" parent="wBUEtHGvzGpiYf_AuA1c-48">
          <mxGeometry x="-0.1923" y="4" relative="1" as="geometry">
            <mxPoint x="1" as="offset" />
          </mxGeometry>
        </mxCell>
        <mxCell id="wBUEtHGvzGpiYf_AuA1c-49" value="" style="edgeStyle=orthogonalEdgeStyle;rounded=0;orthogonalLoop=1;jettySize=auto;html=1;exitX=0.558;exitY=1.022;exitDx=0;exitDy=0;exitPerimeter=0;entryX=1;entryY=0.5;entryDx=0;entryDy=0;" edge="1" parent="wBUEtHGvzGpiYf_AuA1c-29" source="wBUEtHGvzGpiYf_AuA1c-45" target="wBUEtHGvzGpiYf_AuA1c-37">
          <mxGeometry relative="1" as="geometry" />
        </mxCell>
        <mxCell id="wBUEtHGvzGpiYf_AuA1c-50" value="" style="edgeStyle=orthogonalEdgeStyle;rounded=0;orthogonalLoop=1;jettySize=auto;html=1;" edge="1" parent="wBUEtHGvzGpiYf_AuA1c-29" source="wBUEtHGvzGpiYf_AuA1c-38" target="wBUEtHGvzGpiYf_AuA1c-31">
          <mxGeometry relative="1" as="geometry" />
        </mxCell>
        <mxCell id="wBUEtHGvzGpiYf_AuA1c-51" value="否" style="edgeLabel;html=1;align=center;verticalAlign=middle;resizable=0;points=[];" vertex="1" connectable="0" parent="wBUEtHGvzGpiYf_AuA1c-50">
          <mxGeometry x="0.25" y="1" relative="1" as="geometry">
            <mxPoint as="offset" />
          </mxGeometry>
        </mxCell>
        <mxCell id="wBUEtHGvzGpiYf_AuA1c-64" style="edgeStyle=orthogonalEdgeStyle;rounded=0;orthogonalLoop=1;jettySize=auto;html=1;exitX=0;exitY=0.5;exitDx=0;exitDy=0;entryX=1;entryY=0.5;entryDx=0;entryDy=0;" edge="1" parent="wBUEtHGvzGpiYf_AuA1c-29" source="wBUEtHGvzGpiYf_AuA1c-62" target="wBUEtHGvzGpiYf_AuA1c-34">
          <mxGeometry relative="1" as="geometry" />
        </mxCell>
        <mxCell id="wBUEtHGvzGpiYf_AuA1c-67" style="edgeStyle=orthogonalEdgeStyle;rounded=0;orthogonalLoop=1;jettySize=auto;html=1;exitX=0;exitY=0.5;exitDx=0;exitDy=0;entryX=1;entryY=0.5;entryDx=0;entryDy=0;" edge="1" parent="wBUEtHGvzGpiYf_AuA1c-29" source="wBUEtHGvzGpiYf_AuA1c-43" target="wBUEtHGvzGpiYf_AuA1c-65">
          <mxGeometry relative="1" as="geometry" />
        </mxCell>
        <mxCell id="GBaSO3VjDCnRQ0Q_XL8A-4" value="验收不通过" style="edgeStyle=orthogonalEdgeStyle;rounded=0;orthogonalLoop=1;jettySize=auto;html=1;entryX=1;entryY=0.5;entryDx=0;entryDy=0;exitX=0.5;exitY=1;exitDx=0;exitDy=0;" edge="1" parent="wBUEtHGvzGpiYf_AuA1c-29" source="wBUEtHGvzGpiYf_AuA1c-65" target="wBUEtHGvzGpiYf_AuA1c-42">
          <mxGeometry relative="1" as="geometry" />
        </mxCell>
        <mxCell id="wBUEtHGvzGpiYf_AuA1c-57" style="edgeStyle=orthogonalEdgeStyle;rounded=0;orthogonalLoop=1;jettySize=auto;html=1;exitX=0.5;exitY=1;exitDx=0;exitDy=0;entryX=1;entryY=0.5;entryDx=0;entryDy=0;" edge="1" parent="wBUEtHGvzGpiYf_AuA1c-2" source="wBUEtHGvzGpiYf_AuA1c-11" target="wBUEtHGvzGpiYf_AuA1c-17">
          <mxGeometry relative="1" as="geometry" />
        </mxCell>
        <mxCell id="wBUEtHGvzGpiYf_AuA1c-28" value="" style="edgeStyle=orthogonalEdgeStyle;rounded=0;orthogonalLoop=1;jettySize=auto;html=1;" edge="1" parent="wBUEtHGvzGpiYf_AuA1c-2" source="wBUEtHGvzGpiYf_AuA1c-20" target="wBUEtHGvzGpiYf_AuA1c-25">
          <mxGeometry relative="1" as="geometry" />
        </mxCell>
      </root>
    </mxGraphModel>
  </diagram>
  <diagram id="Tsxjf3J0I4SAjDnX9dLT" name="三方-l">
    <mxGraphModel dx="595" dy="264" grid="1" gridSize="10" guides="1" tooltips="1" connect="1" arrows="1" fold="1" page="1" pageScale="1" pageWidth="827" pageHeight="1169" math="0" shadow="0">
      <root>
        <mxCell id="olCoV_NYIEQCg-WbNCwQ-0" />
        <mxCell id="olCoV_NYIEQCg-WbNCwQ-1" parent="olCoV_NYIEQCg-WbNCwQ-0" />
        <mxCell id="tpHc0Stt8AnjhdW2x7LB-0" value="联合建模流程——三方" style="shape=table;childLayout=tableLayout;rowLines=0;columnLines=0;startSize=40;html=1;whiteSpace=wrap;collapsible=0;recursiveResize=0;expand=0;pointerEvents=0;fontStyle=1;align=center;" vertex="1" parent="olCoV_NYIEQCg-WbNCwQ-1">
          <mxGeometry x="200" y="30" width="520" height="400" as="geometry" />
        </mxCell>
        <mxCell id="tpHc0Stt8AnjhdW2x7LB-1" value="Actor 1" style="swimlane;horizontal=0;points=[[0,0.5],[1,0.5]];portConstraint=eastwest;startSize=40;html=1;whiteSpace=wrap;collapsible=0;recursiveResize=0;expand=0;pointerEvents=0;fontStyle=1" vertex="1" parent="tpHc0Stt8AnjhdW2x7LB-0">
          <mxGeometry y="40" width="520" height="120" as="geometry" />
        </mxCell>
        <mxCell id="tpHc0Stt8AnjhdW2x7LB-2" value="三方数据公司" style="swimlane;connectable=0;startSize=40;html=1;whiteSpace=wrap;collapsible=0;recursiveResize=0;expand=0;pointerEvents=0;" vertex="1" parent="tpHc0Stt8AnjhdW2x7LB-1">
          <mxGeometry x="40" width="120" height="120" as="geometry" />
        </mxCell>
        <mxCell id="tpHc0Stt8AnjhdW2x7LB-3" value="策略组" style="swimlane;connectable=0;startSize=40;html=1;whiteSpace=wrap;collapsible=0;recursiveResize=0;expand=0;pointerEvents=0;" vertex="1" parent="tpHc0Stt8AnjhdW2x7LB-1">
          <mxGeometry x="160" width="120" height="120" as="geometry" />
        </mxCell>
        <mxCell id="tpHc0Stt8AnjhdW2x7LB-4" value="模型组" style="swimlane;connectable=0;startSize=40;html=1;whiteSpace=wrap;collapsible=0;recursiveResize=0;expand=0;pointerEvents=0;" vertex="1" parent="tpHc0Stt8AnjhdW2x7LB-1">
          <mxGeometry x="280" width="120" height="120" as="geometry" />
        </mxCell>
        <mxCell id="3OoZSTVNZh7448pSOiVC-0" value="技术组" style="swimlane;connectable=0;startSize=40;html=1;whiteSpace=wrap;collapsible=0;recursiveResize=0;expand=0;pointerEvents=0;" vertex="1" parent="tpHc0Stt8AnjhdW2x7LB-1">
          <mxGeometry x="400" width="120" height="120" as="geometry" />
        </mxCell>
        <mxCell id="tpHc0Stt8AnjhdW2x7LB-5" value="Actor 2" style="swimlane;horizontal=0;points=[[0,0.5],[1,0.5]];portConstraint=eastwest;startSize=40;html=1;whiteSpace=wrap;collapsible=0;recursiveResize=0;expand=0;pointerEvents=0;" vertex="1" parent="tpHc0Stt8AnjhdW2x7LB-0">
          <mxGeometry y="160" width="520" height="120" as="geometry" />
        </mxCell>
        <mxCell id="tpHc0Stt8AnjhdW2x7LB-6" value="" style="swimlane;connectable=0;startSize=0;html=1;whiteSpace=wrap;collapsible=0;recursiveResize=0;expand=0;pointerEvents=0;" vertex="1" parent="tpHc0Stt8AnjhdW2x7LB-5">
          <mxGeometry x="40" width="120" height="120" as="geometry" />
        </mxCell>
        <mxCell id="tpHc0Stt8AnjhdW2x7LB-7" value="" style="swimlane;connectable=0;startSize=0;html=1;whiteSpace=wrap;collapsible=0;recursiveResize=0;expand=0;pointerEvents=0;" vertex="1" parent="tpHc0Stt8AnjhdW2x7LB-5">
          <mxGeometry x="160" width="120" height="120" as="geometry" />
        </mxCell>
        <mxCell id="tpHc0Stt8AnjhdW2x7LB-8" value="" style="swimlane;connectable=0;startSize=0;html=1;whiteSpace=wrap;collapsible=0;recursiveResize=0;expand=0;pointerEvents=0;" vertex="1" parent="tpHc0Stt8AnjhdW2x7LB-5">
          <mxGeometry x="280" width="120" height="120" as="geometry" />
        </mxCell>
        <mxCell id="3OoZSTVNZh7448pSOiVC-1" style="swimlane;connectable=0;startSize=0;html=1;whiteSpace=wrap;collapsible=0;recursiveResize=0;expand=0;pointerEvents=0;" vertex="1" parent="tpHc0Stt8AnjhdW2x7LB-5">
          <mxGeometry x="400" width="120" height="120" as="geometry" />
        </mxCell>
        <mxCell id="tpHc0Stt8AnjhdW2x7LB-9" value="Actor 3" style="swimlane;horizontal=0;points=[[0,0.5],[1,0.5]];portConstraint=eastwest;startSize=40;html=1;whiteSpace=wrap;collapsible=0;recursiveResize=0;expand=0;pointerEvents=0;" vertex="1" parent="tpHc0Stt8AnjhdW2x7LB-0">
          <mxGeometry y="280" width="520" height="120" as="geometry" />
        </mxCell>
        <mxCell id="tpHc0Stt8AnjhdW2x7LB-10" value="" style="swimlane;connectable=0;startSize=0;html=1;whiteSpace=wrap;collapsible=0;recursiveResize=0;expand=0;pointerEvents=0;" vertex="1" parent="tpHc0Stt8AnjhdW2x7LB-9">
          <mxGeometry x="40" width="120" height="120" as="geometry" />
        </mxCell>
        <mxCell id="tpHc0Stt8AnjhdW2x7LB-11" value="" style="swimlane;connectable=0;startSize=0;html=1;whiteSpace=wrap;collapsible=0;recursiveResize=0;expand=0;pointerEvents=0;" vertex="1" parent="tpHc0Stt8AnjhdW2x7LB-9">
          <mxGeometry x="160" width="120" height="120" as="geometry" />
        </mxCell>
        <mxCell id="tpHc0Stt8AnjhdW2x7LB-12" value="" style="swimlane;connectable=0;startSize=0;html=1;whiteSpace=wrap;collapsible=0;recursiveResize=0;expand=0;pointerEvents=0;" vertex="1" parent="tpHc0Stt8AnjhdW2x7LB-9">
          <mxGeometry x="280" width="120" height="120" as="geometry" />
        </mxCell>
        <mxCell id="3OoZSTVNZh7448pSOiVC-2" style="swimlane;connectable=0;startSize=0;html=1;whiteSpace=wrap;collapsible=0;recursiveResize=0;expand=0;pointerEvents=0;" vertex="1" parent="tpHc0Stt8AnjhdW2x7LB-9">
          <mxGeometry x="400" width="120" height="120" as="geometry" />
        </mxCell>
      </root>
    </mxGraphModel>
  </diagram>
</mxfile>
